<?xml version="1.0" standalone="no"?>
<!DOCTYPE svg PUBLIC "-//W3C//DTD SVG 20010904//EN"
 "http://www.w3.org/TR/2001/REC-SVG-20010904/DTD/svg10.dtd">
<svg version="1.0" xmlns="http://www.w3.org/2000/svg"
 width="1920.000000pt" height="1920.000000pt" viewBox="0 0 1920.000000 1920.000000"
 preserveAspectRatio="xMidYMid meet">

<g transform="translate(0.000000,1920.000000) scale(0.100000,-0.100000)"
fill="#000000" stroke="none">
<path d="M6983 15079 c-97 -9 -133 -20 -133 -43 0 -31 26 -38 105 -27 108 15
304 13 410 -4 165 -26 348 -88 484 -164 60 -33 95 -28 89 11 -4 25 -128 92
-258 139 -231 84 -442 111 -697 88z"/>
<path d="M8477 14814 c-13 -13 -7 -49 22 -139 62 -191 166 -402 269 -550 63
-89 174 -202 226 -230 72 -39 92 16 23 64 -167 115 -340 397 -457 746 -29 86
-41 111 -56 113 -11 2 -23 0 -27 -4z"/>
<path d="M8397 14253 c-4 -3 -7 -16 -7 -28 0 -34 90 -79 160 -80 91 0 129 19
114 59 -4 10 -26 13 -89 12 -72 -1 -87 2 -114 22 -31 22 -52 28 -64 15z"/>
<path d="M6393 14124 c-13 -34 8 -501 47 -1044 35 -498 41 -612 41 -875 0
-340 -16 -481 -72 -631 -28 -74 -59 -124 -108 -173 -124 -124 -316 -115 -389
17 -13 23 -30 42 -38 42 -9 0 -38 -25 -66 -56 -62 -67 -125 -101 -212 -113
-114 -16 -238 9 -371 77 -65 32 -95 30 -95 -8 0 -14 19 -30 70 -55 111 -56
208 -79 330 -80 129 0 186 18 275 85 l63 48 29 -30 c43 -46 100 -70 174 -76
89 -6 157 12 224 59 l56 39 132 0 c73 0 274 -9 447 -20 280 -19 345 -20 589
-10 151 6 276 12 277 13 1 1 9 16 17 33 81 159 246 179 344 43 33 -46 39 -50
67 -45 42 7 365 42 507 55 120 11 175 27 200 57 21 25 18 164 -6 243 -10 35
-33 84 -52 108 -29 37 -33 51 -33 101 1 105 55 311 113 427 57 114 190 217
390 300 61 26 68 31 65 54 -4 38 -38 32 -162 -27 -250 -119 -347 -229 -420
-472 -29 -98 -56 -243 -56 -304 l0 -42 -322 -33 c-403 -40 -380 -38 -578 -53
-93 -7 -348 -12 -585 -12 -384 -1 -508 5 -707 30 l-48 7 8 76 c13 143 5 752
-13 934 -3 29 -14 187 -25 352 -11 165 -22 325 -25 355 -2 30 -7 172 -10 315
-4 143 -8 270 -11 283 -5 27 -51 31 -61 6z"/>
<path d="M7821 14045 c-70 -168 -272 -205 -404 -73 -49 49 -80 60 -91 32 -8
-20 4 -41 51 -86 94 -90 229 -118 340 -69 65 29 143 110 167 173 21 55 16 78
-17 78 -19 0 -28 -10 -46 -55z"/>
<path d="M9523 13683 c-30 -6 -53 -40 -53 -79 0 -49 38 -160 66 -193 56 -67
221 -90 298 -42 68 43 94 136 60 221 -19 47 -45 64 -136 85 -59 14 -184 18
-235 8z"/>
<path d="M9525 13086 c-359 -478 -1020 -585 -1527 -248 -62 41 -70 44 -84 30
-25 -25 -9 -50 59 -95 199 -130 411 -195 647 -196 153 -1 246 12 375 55 220
73 411 200 541 359 47 57 60 68 68 57 24 -32 88 -50 101 -28 10 17 -5 49 -26
55 -11 4 -31 24 -45 46 -13 21 -31 39 -39 39 -7 0 -39 -34 -70 -74z"/>
<path d="M12292 12339 c-155 -31 -310 -210 -381 -444 -57 -185 -111 -759 -111
-1179 0 -490 61 -1069 146 -1381 5 -19 1 -20 -78 -17 -183 8 -441 -37 -708
-123 -91 -29 -189 -58 -218 -65 -51 -12 -53 -11 -105 21 -28 18 -87 59 -129
92 -43 32 -78 56 -78 53 0 -3 -11 5 -24 17 -13 12 -30 27 -38 32 -7 6 -43 34
-81 63 -37 29 -72 50 -78 47 -5 -4 -8 -1 -7 6 4 18 -33 24 -43 7 -9 -13 -5
-222 5 -264 2 -12 6 -43 7 -70 l3 -49 -38 3 c-59 5 -188 49 -255 86 -118 67
-160 104 -434 380 -167 168 -281 276 -286 270 -5 -5 -14 -27 -21 -49 -16 -50
-90 -207 -123 -260 l-26 -41 242 -241 c133 -132 276 -266 317 -297 162 -122
385 -208 598 -231 72 -8 72 -8 97 -120 30 -137 171 -580 262 -823 25 -67 44
-124 42 -126 -7 -7 -392 -26 -529 -26 -381 -2 -596 1 -609 9 -10 7 -17 50 -25
155 -8 111 -15 149 -26 156 -44 28 -50 2 -38 -158 6 -79 8 -145 5 -148 -8 -9
-184 24 -277 52 -47 14 -92 28 -100 30 -10 3 -29 -19 -55 -63 -56 -92 -231
-268 -327 -327 -43 -26 -122 -65 -175 -85 l-98 -37 -8 -119 c-10 -141 -22
-170 -68 -161 -52 10 -190 76 -300 142 -71 43 -117 64 -138 64 -29 0 -187 -94
-331 -197 -19 -13 -48 -27 -63 -30 -26 -5 -28 -9 -23 -42 3 -20 19 -171 36
-336 16 -165 48 -482 70 -705 67 -664 81 -813 78 -829 -5 -26 -129 196 -206
369 -36 82 -293 651 -389 865 -90 199 -136 301 -287 638 -35 78 -139 309 -231
512 -92 204 -183 404 -201 445 -57 131 -121 270 -128 277 -7 7 -46 -26 -46
-39 0 -9 42 -109 88 -208 154 -332 229 -513 242 -580 12 -64 23 -89 74 -165
44 -65 111 -203 241 -491 l181 -401 -7 -129 c-4 -73 -16 -163 -28 -206 -26
-98 -83 -233 -133 -309 -21 -33 -38 -67 -38 -77 0 -25 11 -62 19 -62 13 0 111
157 145 231 46 102 73 193 91 302 8 50 16 91 17 93 2 1 22 -39 45 -89 139
-309 188 -417 242 -540 l60 -138 -52 5 c-29 3 -149 13 -267 21 -118 8 -228 17
-243 20 -27 4 -28 3 -25 -28 3 -30 6 -32 53 -38 28 -4 151 -14 275 -23 316
-24 281 -11 336 -114 66 -122 142 -239 168 -260 13 -10 25 -33 29 -56 3 -21 8
-40 9 -42 6 -5 251 -52 306 -58 l52 -5 0 74 c0 68 2 75 20 75 36 0 39 28 9
106 l-28 74 9 227 c5 126 10 228 10 228 0 0 73 1 163 1 l162 2 33 -117 c30
-109 32 -125 28 -227 -3 -60 -8 -182 -11 -271 l-5 -163 27 0 c59 0 297 48 399
81 30 9 33 15 64 127 41 150 46 158 55 91 10 -76 21 -99 45 -99 31 0 33 20 15
143 -24 172 -22 205 23 362 22 77 44 140 48 140 5 0 78 -4 163 -9 l154 -8 -7
-347 c-3 -192 -4 -355 0 -364 8 -22 50 -22 58 -1 3 9 6 131 7 272 1 141 4 296
8 343 l6 87 550 6 c303 3 591 9 642 12 l92 7 26 -59 27 -59 -10 -285 c-9 -237
-8 -287 3 -299 40 -41 55 28 55 264 0 72 3 147 7 168 l6 38 40 -63 c72 -113
80 -141 74 -239 l-6 -87 87 -31 c94 -34 233 -71 264 -71 15 0 31 25 68 103 61
131 78 187 85 295 3 48 8 106 11 129 l5 43 64 -54 c35 -30 91 -69 125 -88 l61
-33 -7 -212 c-6 -192 -5 -213 10 -219 37 -14 43 10 50 203 4 103 9 189 11 191
9 9 395 -133 480 -176 69 -35 109 -64 169 -124 l79 -79 56 37 c30 20 95 76
145 124 l89 87 -46 164 c-130 461 -159 635 -177 1074 -21 497 -60 718 -161
917 -11 22 -17 44 -12 47 4 4 38 31 76 60 159 125 286 343 343 591 44 193 42
369 -7 569 l-21 87 39 65 c155 253 435 771 668 1238 74 149 135 275 135 281 0
19 37 85 60 105 20 18 41 21 209 26 198 7 265 20 430 86 66 26 196 98 219 120
7 7 19 13 25 14 7 0 1 5 -13 10 -14 6 -142 13 -285 16 -324 7 -399 -5 -546
-84 -4 -2 -9 3 -13 12 -3 9 -2 14 3 11 13 -8 95 165 126 264 14 47 33 116 41
154 17 82 28 318 16 360 l-8 30 -56 -70 c-124 -155 -202 -297 -223 -405 -15
-73 -22 -196 -18 -286 5 -98 4 -105 -19 -140 -39 -58 -286 -306 -453 -453
l-150 -133 -7 29 c-3 16 -11 103 -18 194 -35 519 -157 1341 -256 1723 -92 356
-246 572 -429 602 -77 12 -90 13 -133 4z m1612 -1545 c10 -4 16 -18 16 -35 0
-26 -3 -29 -34 -29 -38 0 -52 20 -36 51 11 20 27 23 54 13z m340 -376 c15 -24
-11 -68 -40 -68 -35 0 -55 49 -28 70 7 7 12 16 9 20 -3 5 7 5 22 1 14 -4 31
-14 37 -23z m-473 -214 c18 -22 -1 -49 -36 -49 -35 0 -54 27 -36 49 8 9 24 16
36 16 12 0 28 -7 36 -16z m-343 -542 c-2 -22 -8 -27 -32 -27 -17 0 -33 7 -40
18 -9 15 -7 22 12 37 32 26 65 11 60 -28z m-174 -324 c15 -25 -4 -53 -35 -53
-25 0 -37 30 -25 61 8 20 46 14 60 -8z m-243 -414 c17 -21 0 -49 -31 -49 -31
0 -48 28 -31 49 8 9 21 16 31 16 10 0 23 -7 31 -16z m-1351 -123 c7 -14 5 -24
-8 -41 -29 -36 -74 -2 -52 41 14 24 46 25 60 0z m422 -115 c23 -51 -18 -83
-58 -46 -27 26 -30 40 -12 58 21 21 57 14 70 -12z m-905 -16 c13 -26 8 -46
-13 -54 -40 -15 -73 45 -38 71 23 17 36 13 51 -17z m-522 -65 c0 -23 -5 -31
-21 -33 -30 -4 -48 21 -34 48 18 33 55 23 55 -15z m885 -190 c0 -29 -28 -47
-53 -34 -21 12 -22 37 -1 60 22 24 54 8 54 -26z m1060 -106 c0 -19 -6 -30 -20
-34 -46 -15 -72 57 -27 74 29 11 47 -4 47 -40z m-454 23 c35 -24 20 -72 -22
-72 -32 0 -45 47 -19 67 21 15 26 16 41 5z m-1296 -16 c6 -8 10 -25 8 -38 -2
-18 -9 -23 -33 -23 -26 0 -30 4 -33 29 -5 41 32 62 58 32z m319 -248 c11 -29
-4 -48 -36 -48 -27 0 -47 37 -31 58 17 21 58 15 67 -10z m477 1 c14 -15 16
-24 8 -37 -23 -36 -74 -21 -74 23 0 41 35 48 66 14z m954 -109 c-43 -168 -145
-318 -267 -394 -49 -30 -62 -32 -88 -12 -21 15 -24 11 92 142 70 81 137 164
215 269 34 46 64 83 66 81 1 -2 -6 -41 -18 -86z m-522 -21 c4 -52 -39 -79 -68
-44 -16 20 10 62 42 68 13 2 23 5 23 6 1 0 2 -13 3 -30z m-883 -239 c0 -22 -5
-25 -37 -28 -28 -2 -38 1 -38 12 0 34 13 47 44 44 26 -2 31 -7 31 -28z m130
-1150 c4 -6 -3 -50 -14 -98 -44 -190 -37 -345 25 -531 41 -124 107 -240 187
-326 58 -64 69 -91 41 -102 -10 -3 -29 8 -52 30 l-38 37 -59 -10 c-65 -11
-411 -12 -460 -1 -31 6 -47 38 -26 50 6 4 48 3 93 -2 81 -8 363 -2 392 9 12 4
7 17 -21 62 -53 83 -109 206 -133 297 -34 122 -39 348 -11 474 11 51 26 100
32 107 14 16 35 18 44 4z m-1986 -513 c17 -21 -127 -430 -153 -435 -10 -2 -22
2 -26 9 -5 7 21 98 63 218 76 222 87 242 116 208z m-741 -367 c2 -80 0 -97
-14 -107 -33 -24 -44 2 -44 102 0 50 3 95 7 99 4 4 16 6 28 4 18 -3 20 -11 23
-98z m-500 -36 c28 -36 52 -69 52 -74 0 -4 -7 -14 -16 -21 -15 -12 -23 -7 -66
41 -48 55 -66 90 -53 109 13 22 32 9 83 -55z"/>
<path d="M5095 12167 c-45 -69 -112 -283 -122 -389 l-6 -70 29 4 c28 3 29 6
46 88 24 116 54 212 90 292 25 56 29 70 18 83 -18 21 -37 19 -55 -8z"/>
<path d="M10339 11866 c-19 -19 -598 -127 -834 -155 -93 -12 -191 -24 -217
-27 l-46 -6 -19 -96 c-25 -136 -25 -480 0 -602 44 -206 132 -440 167 -440 24
0 125 76 180 136 179 194 334 409 520 723 56 95 119 199 140 230 74 113 139
241 121 241 -4 0 -10 -2 -12 -4z"/>
<path d="M5870 11835 c-19 -22 -27 -210 -10 -230 7 -8 15 -15 19 -15 23 1 32
24 37 101 11 156 11 154 -12 157 -11 2 -27 -4 -34 -13z"/>
<path d="M11676 11588 c-35 -117 -43 -133 -78 -161 -51 -41 -118 -47 -173 -15
-37 22 -50 40 -95 138 -10 21 -39 25 -46 5 -13 -33 19 -108 65 -156 128 -132
332 -62 371 127 6 30 9 58 5 64 -9 14 -45 12 -49 -2z"/>
<path d="M10381 10960 c-20 -12 -8 -45 17 -48 18 -3 22 1 22 21 0 27 -19 40
-39 27z"/>
<path d="M10013 10943 c-17 -6 -16 -38 0 -52 21 -17 56 12 41 35 -12 20 -23
25 -41 17z"/>
<path d="M10182 10733 c-13 -25 -4 -43 19 -43 25 0 35 25 19 45 -16 20 -27 19
-38 -2z"/>
<path d="M9934 10635 c-9 -23 3 -45 24 -45 11 0 25 7 32 15 16 19 -3 45 -32
45 -10 0 -21 -7 -24 -15z"/>
<path d="M10354 10575 c-15 -38 29 -71 52 -40 12 16 11 21 -3 37 -20 22 -42
23 -49 3z"/>
<path d="M8424 10506 c-3 -8 -7 -46 -7 -83 -2 -62 0 -68 19 -71 34 -5 45 20
42 95 -3 62 -5 68 -26 71 -13 2 -24 -3 -28 -12z"/>
<path d="M8021 10491 c-16 -29 -14 -124 3 -147 12 -15 18 -17 33 -8 15 9 18
25 18 90 0 74 -1 79 -22 82 -14 2 -26 -4 -32 -17z"/>
<path d="M7177 10466 c-10 -10 -13 -30 -10 -68 7 -92 10 -100 41 -96 27 3 27
3 24 77 -3 92 -21 121 -55 87z"/>
<path d="M7581 10417 c-14 -18 1 -65 25 -74 27 -10 48 20 37 54 -11 31 -43 42
-62 20z"/>
<path d="M11254 10316 c-3 -8 4 -40 15 -71 27 -71 27 -139 0 -209 -48 -128
-147 -140 -249 -30 -64 69 -117 51 -60 -21 103 -129 231 -150 317 -52 76 86
95 238 43 342 -25 51 -55 69 -66 41z"/>
<path d="M6777 10249 c-37 -22 0 -149 43 -149 29 0 33 16 20 73 -19 83 -29 95
-63 76z"/>
<path d="M11704 9916 c-83 -89 -306 -186 -547 -238 -89 -19 -128 -22 -307 -20
-113 1 -230 3 -260 5 -45 2 -55 -1 -58 -15 -5 -25 27 -35 155 -49 212 -23 468
4 676 72 194 63 402 186 422 250 6 18 -9 49 -24 49 -3 -1 -29 -25 -57 -54z"/>
<path d="M8185 9921 c-7 -12 25 -30 43 -24 6 3 12 11 12 19 0 16 -45 20 -55 5z"/>
<path d="M8490 9876 c0 -23 23 -56 39 -56 13 0 31 24 31 41 0 10 -13 22 -31
28 -41 14 -39 15 -39 -13z"/>
<path d="M7331 9826 c-10 -12 -9 -27 5 -70 18 -56 32 -70 60 -59 19 7 15 47
-10 106 -16 39 -35 47 -55 23z"/>
<path d="M7914 9775 c-11 -28 1 -136 17 -146 17 -11 21 -11 38 0 10 7 11 24 5
82 -8 66 -11 74 -32 77 -13 2 -25 -3 -28 -13z"/>
<path d="M8266 9611 c-4 -5 12 -157 34 -337 22 -180 39 -328 38 -330 -2 -1
-30 4 -63 11 -33 7 -77 16 -97 19 -26 5 -39 13 -44 29 -17 56 -311 377 -345
377 -14 0 -19 7 -19 28 0 64 -28 98 -57 69 -11 -11 -12 -31 -5 -96 8 -80 7
-83 -22 -134 -16 -29 -64 -134 -106 -235 -75 -179 -78 -185 -131 -226 -116
-91 -228 -244 -278 -380 -70 -191 -70 -421 1 -589 72 -171 273 -387 360 -387
25 0 91 -28 224 -96 201 -101 219 -106 269 -67 12 10 69 56 126 102 145 117
203 154 227 147 22 -7 42 -52 62 -133 6 -29 17 -53 23 -53 15 0 252 126 312
166 69 46 153 118 213 185 66 73 90 134 112 289 9 61 18 85 49 130 119 170
199 416 231 708 13 117 7 158 -21 167 -47 15 -452 -57 -643 -114 l-98 -29
-102 44 c-94 40 -101 46 -107 76 -4 18 -24 170 -45 338 -20 168 -42 311 -47
318 -11 14 -43 16 -51 3z m-886 -1153 c0 -32 7 -47 34 -74 44 -44 99 -49 184
-18 39 15 45 15 59 1 20 -19 10 -34 -33 -52 -128 -53 -257 -12 -293 94 -15 46
-14 67 4 85 25 25 45 9 45 -36z m720 -336 c10 -29 26 -62 36 -73 71 -78 232
-78 274 0 12 24 33 27 49 7 17 -20 -25 -75 -79 -104 -82 -43 -213 -18 -282 55
-40 42 -64 107 -59 161 1 8 10 12 23 10 16 -2 25 -16 38 -56z m-397 -96 c18
-14 18 -16 1 -63 -23 -65 -23 -187 0 -231 44 -84 163 -97 238 -25 23 22 30 24
43 13 23 -19 18 -36 -21 -68 -61 -51 -143 -65 -212 -37 -75 32 -109 82 -119
175 -3 33 -8 60 -10 60 -3 0 -18 -11 -35 -25 -117 -99 -279 -16 -269 138 1 11
9 17 25 17 20 0 24 -6 30 -41 8 -53 53 -99 95 -99 66 0 111 37 169 138 20 34
39 62 42 62 3 0 13 -7 23 -14z"/>
<path d="M15755 9040 c-189 -33 -353 -178 -417 -369 -21 -61 -23 -86 -24 -331
-2 -561 -52 -841 -207 -1173 l-46 -98 24 -92 c64 -244 95 -478 95 -722 0 -493
-131 -905 -404 -1275 -91 -124 -241 -272 -340 -337 -63 -42 -76 -54 -61 -59
26 -10 625 13 795 31 562 59 1057 224 1368 454 218 162 365 358 422 563 24 88
25 131 3 168 -19 32 -87 73 -151 90 l-44 11 144 147 c416 426 582 760 566
1140 -9 197 -72 350 -191 459 -72 65 -146 95 -242 96 -125 1 -199 -47 -341
-219 -47 -57 -89 -104 -93 -104 -4 0 -1 35 7 78 23 124 20 421 -6 562 -68 373
-227 683 -435 847 -137 107 -290 155 -422 133z"/>
<path d="M5387 7789 c-9 -6 -17 -18 -17 -27 0 -14 4 -13 22 6 24 24 22 36 -5
21z"/>
<path d="M5796 7373 c-14 -14 -4 -46 23 -74 39 -38 97 -40 138 -5 35 30 23 46
-16 23 -16 -9 -41 -17 -55 -17 -28 0 -66 31 -66 54 0 17 -14 28 -24 19z"/>
<path d="M5185 7313 c-21 -74 -5 -309 17 -257 6 15 7 12 4 -10 -4 -31 21 -96
37 -96 5 0 -1 15 -12 33 -17 28 -19 39 -10 71 7 26 15 36 25 32 18 -7 18 5 -1
30 -8 10 -15 28 -15 40 0 11 -7 29 -16 40 -15 18 -15 18 -5 -3 14 -27 14 -40
1 -27 -13 13 -21 84 -10 84 6 0 9 12 9 28 -1 16 -3 20 -6 10 -2 -10 -8 -18
-13 -18 -5 0 -4 14 2 31 6 16 8 32 5 35 -2 3 -8 -8 -12 -23z m55 -206 c0 -5
-4 -6 -9 -2 -5 3 -11 0 -14 -7 -2 -7 -3 -5 -2 5 4 20 -11 23 -18 5 -3 -7 -6 2
-6 21 l-1 33 25 -23 c13 -13 25 -28 25 -32z"/>
<path d="M5162 7200 c0 -14 2 -19 5 -12 2 6 2 18 0 25 -3 6 -5 1 -5 -13z"/>
<path d="M5234 7059 c-5 -9 8 -13 36 -10 13 2 13 1 0 -8 -13 -10 -13 -11 0
-11 14 0 16 -13 11 -77 0 -9 -4 -13 -8 -9 -4 4 -6 23 -5 43 2 29 0 34 -14 29
-12 -4 -15 -2 -10 9 3 8 1 15 -4 15 -14 0 -12 -31 5 -60 9 -18 10 -29 3 -37
-8 -10 -6 -13 5 -13 9 0 19 -5 23 -12 4 -7 3 -8 -4 -4 -15 9 -15 -5 1 -24 7
-9 21 -16 32 -16 49 -2 52 -4 50 -35 -2 -37 36 -85 60 -75 10 3 13 11 9 18 -6
9 -9 9 -12 0 -5 -17 -22 -15 -22 3 0 16 9 19 34 9 11 -4 14 -13 10 -30 -5 -18
-2 -24 10 -24 8 0 20 -9 26 -20 6 -12 30 -25 55 -32 24 -7 42 -15 39 -20 -3
-4 3 -9 13 -9 32 -2 38 -4 61 -17 32 -18 38 -8 12 18 -16 16 -29 20 -48 16
-15 -3 -21 -3 -14 0 10 5 9 9 -5 20 -10 7 -13 14 -6 14 6 0 15 -4 18 -10 3 -5
15 -10 25 -10 19 0 70 -43 70 -59 0 -10 110 -42 121 -36 4 3 10 1 13 -4 3 -4
24 -7 46 -5 22 2 40 -1 40 -5 0 -5 9 -7 20 -4 11 3 27 0 35 -7 9 -7 25 -10 41
-6 19 5 24 4 18 -6 -4 -6 6 -2 23 10 17 12 34 18 38 14 5 -4 5 -1 1 5 -10 18
81 6 114 -15 l25 -15 -19 21 c-11 12 -14 22 -9 22 6 0 16 -7 23 -15 14 -17 55
-11 81 11 8 8 21 14 27 14 6 0 16 9 22 20 10 18 8 19 -22 13 -43 -8 -75 -26
-36 -20 15 2 25 0 22 -4 -3 -5 -12 -9 -20 -9 -8 0 -12 -4 -9 -10 3 -5 2 -10
-2 -10 -10 0 -33 21 -33 30 0 10 48 30 70 30 23 0 32 13 24 34 -5 13 -14 15
-43 10 -20 -4 -38 -10 -41 -13 -9 -12 -275 7 -394 29 -65 12 -124 19 -130 17
-7 -3 -20 1 -30 8 -10 8 -25 11 -34 8 -9 -4 -13 -2 -9 4 10 15 -13 22 -40 12
-14 -5 -23 -5 -23 1 0 6 8 10 18 10 14 0 14 2 3 9 -15 10 -41 -8 -41 -28 0 -6
-4 -11 -10 -11 -5 0 -10 7 -10 15 0 8 5 15 10 15 17 0 11 29 -8 39 -20 11 -36
4 -45 -19 -4 -12 -6 -12 -6 2 -1 9 -7 19 -13 21 -10 4 -10 8 1 15 11 8 7 14
-20 27 l-34 16 25 -20 c14 -12 19 -21 11 -21 -8 0 -11 -6 -7 -17 6 -15 4 -15
-14 2 -11 10 -20 28 -20 40 0 27 -89 105 -119 105 -12 0 -21 4 -21 10 0 5 7 7
15 4 8 -4 15 -1 15 7 0 7 -3 10 -6 6 -4 -3 -16 12 -28 35 -20 40 -49 57 -62
37z m152 -163 c1 -9 -4 -12 -11 -9 -8 2 -13 13 -12 24 1 21 19 9 23 -15z m92
-124 c2 -7 -2 -10 -12 -6 -9 3 -16 11 -16 16 0 13 23 5 28 -10z m49 -34 c-3
-7 -5 -2 -5 12 0 14 2 19 5 13 2 -7 2 -19 0 -25z m107 -3 c-18 -14 -17 -15 11
-9 23 4 26 3 15 -5 -19 -13 -50 -14 -50 -1 0 5 -8 7 -17 4 -10 -3 -7 2 7 10
34 21 61 21 34 1z m61 -5 c3 -5 1 -10 -4 -10 -6 0 -11 5 -11 10 0 6 2 10 4 10
3 0 8 -4 11 -10z m-145 -18 c-9 -3 -9 -7 1 -14 9 -5 3 -6 -16 -2 -54 12 -62
23 -16 21 23 -1 38 -3 31 -5z m399 -28 c9 -8 -65 -2 -84 6 -13 6 -2 7 30 3 28
-3 52 -7 54 -9z m2 -19 c68 -3 112 -21 80 -32 -11 -5 -11 -7 0 -14 11 -7 10
-9 -4 -9 -10 0 -15 -5 -12 -10 4 -6 16 -8 28 -4 30 9 34 14 19 23 -7 4 9 7 37
5 27 -1 54 -5 60 -8 6 -4 26 0 46 8 20 9 33 11 30 6 -3 -4 2 -16 11 -24 13
-14 13 -16 1 -16 -8 0 -18 7 -21 15 -4 13 -10 14 -26 5 -12 -7 -39 -8 -65 -4
-35 5 -50 2 -72 -13 -38 -26 -65 -19 -61 15 2 15 7 31 13 35 5 5 -5 6 -23 3
-23 -4 -31 -2 -26 6 5 8 -4 9 -32 5 -25 -4 -50 -1 -69 9 -18 8 -21 12 -8 8 13
-3 55 -7 94 -9z m379 3 c0 -12 -38 -10 -45 2 -4 6 5 9 19 8 15 -1 26 -6 26
-10z m-207 -18 c5 -4 -4 -6 -20 -4 -24 4 -25 3 -8 -5 15 -7 16 -10 4 -10 -9
-1 -27 9 -40 20 l-24 22 40 -7 c22 -4 44 -11 48 -16z m75 0 c10 -17 10 -20 -3
-20 -9 0 -18 7 -21 15 -4 8 -9 13 -13 11 -4 -3 -13 -1 -21 5 -11 6 -7 9 15 9
19 0 35 -7 43 -20z m60 3 c-10 -2 -28 -2 -40 0 -13 2 -5 4 17 4 22 1 32 -1 23
-4z m-358 -18 c18 -10 20 -14 8 -15 -9 0 -20 5 -23 10 -5 8 -11 7 -21 -1 -12
-10 -13 -9 -8 5 7 19 12 19 44 1z m-66 -4 c4 -5 -4 -7 -16 -4 -17 3 -19 2 -10
-5 11 -7 11 -10 -2 -15 -9 -4 -16 -3 -16 2 0 4 -14 8 -31 9 -17 0 -33 3 -36 6
-3 3 11 5 31 4 20 -1 39 2 43 5 9 10 31 9 37 -2z m336 -1 c0 -5 -7 -7 -15 -4
-8 4 -15 8 -15 10 0 2 7 4 15 4 8 0 15 -4 15 -10z m-250 -27 c0 -5 -14 -8 -31
-9 -20 -1 -26 2 -17 7 16 11 48 12 48 2z"/>
<path d="M6500 7031 c0 -28 -55 -79 -99 -91 -66 -17 -133 5 -178 59 -26 32
-43 20 -22 -17 48 -86 195 -106 277 -37 19 16 36 22 50 18 16 -4 22 -1 22 10
0 9 -4 19 -10 22 -5 3 -10 17 -10 31 0 15 -6 24 -15 24 -8 0 -15 -9 -15 -19z"/>
<path d="M5306 6861 c-7 -10 32 -47 40 -38 7 7 -14 47 -26 47 -5 0 -11 -4 -14
-9z m28 -17 c5 -14 4 -15 -9 -4 -17 14 -19 20 -6 20 5 0 12 -7 15 -16z"/>
<path d="M6355 6701 c-3 -5 -1 -12 5 -16 5 -3 10 1 10 9 0 18 -6 21 -15 7z"/>
<path d="M4390 6235 c-20 -24 -7 -415 19 -587 27 -174 39 -212 69 -216 33 -5
36 18 18 111 -31 149 -46 299 -53 497 -6 181 -10 209 -34 210 -4 0 -12 -7 -19
-15z"/>
<path d="M6080 6066 c0 -7 20 -55 44 -107 104 -225 152 -459 111 -539 -23 -44
-28 -37 -21 29 5 41 3 62 -5 66 -17 11 -29 -15 -29 -62 0 -58 -18 -95 -44 -91
-18 3 -22 13 -28 67 -8 69 -11 77 -28 66 -7 -4 -8 -25 -4 -58 7 -49 6 -51 -10
-38 -10 8 -47 74 -83 145 -36 72 -90 167 -120 211 -102 148 -183 235 -183 195
0 -5 30 -46 66 -91 86 -107 140 -192 214 -336 69 -136 74 -143 120 -172 55
-33 131 -23 169 23 12 14 16 13 42 -9 85 -71 205 -20 254 108 15 40 17 69 12
209 -3 90 -10 179 -15 198 -6 19 -13 47 -16 63 -4 15 -13 27 -22 27 -13 0 -15
-6 -9 -27 34 -131 47 -384 24 -454 -13 -37 -55 -99 -68 -99 -5 0 -2 24 7 54
14 52 11 93 -6 82 -5 -3 -14 -31 -21 -63 -20 -88 -43 -117 -79 -95 -10 7 -9
17 3 51 19 54 19 91 1 91 -9 0 -16 -16 -20 -42 -9 -58 -20 -75 -39 -60 -10 9
-14 34 -14 90 0 81 -31 220 -78 350 -22 60 -23 75 -15 128 14 82 13 104 -5
104 -9 0 -15 -10 -16 -27 -1 -16 -4 -39 -8 -53 -7 -24 -9 -22 -34 28 -26 50
-47 67 -47 38z"/>
<path d="M5315 5895 c-33 -7 -77 -20 -98 -29 -52 -21 -127 -76 -127 -93 0 -21
17 -15 65 22 85 64 262 99 380 75 157 -32 252 -122 326 -307 62 -155 119 -441
135 -680 l7 -103 81 0 c167 -1 268 -27 286 -76 12 -30 30 -23 30 12 0 49 -81
75 -276 90 l-91 6 -7 96 c-24 320 -107 651 -199 795 -111 172 -292 240 -512
192z"/>
<path d="M6624 5633 c29 -308 25 -505 -14 -657 -23 -92 -50 -147 -102 -209
-26 -31 -37 -52 -31 -58 12 -12 84 64 112 119 69 134 100 372 82 615 -17 227
-21 257 -39 257 -12 0 -13 -11 -8 -67z"/>
<path d="M4830 5418 c1 -91 56 -396 90 -494 11 -32 18 -59 16 -61 -2 -2 -22
17 -45 43 -30 35 -45 44 -53 36 -21 -21 115 -160 147 -148 11 4 10 14 -6 56
-51 134 -109 397 -109 496 0 54 -10 84 -26 84 -8 0 -14 -6 -14 -12z"/>
<path d="M8294 5276 c-3 -8 19 -106 48 -218 51 -196 54 -203 78 -203 18 0 26
6 28 22 4 25 -86 382 -101 401 -13 16 -46 15 -53 -2z"/>
<path d="M9336 5255 c-8 -21 -8 -278 0 -299 3 -9 17 -16 30 -16 32 0 35 18 32
185 l-3 140 -26 3 c-17 2 -29 -3 -33 -13z"/>
<path d="M13805 5079 c-241 -13 -476 -62 -643 -133 -106 -46 -132 -63 -132
-91 0 -31 28 -40 54 -16 31 27 68 44 191 84 231 76 376 96 780 106 235 6 240
6 243 27 2 15 -4 23 -20 28 -30 8 -294 5 -473 -5z"/>
<path d="M13195 4833 c-11 -3 -50 -18 -87 -35 -56 -26 -68 -35 -68 -55 0 -33
21 -38 64 -12 20 12 62 29 94 39 58 18 79 43 50 61 -14 9 -21 9 -53 2z"/>
<path d="M12272 4777 c-17 -20 -18 -257 -1 -267 37 -24 49 16 49 165 0 85 -3
104 -16 109 -21 8 -20 8 -32 -7z"/>
<path d="M10697 4762 c-10 -15 -19 -193 -13 -245 7 -54 21 -72 44 -58 15 9 22
287 8 301 -12 12 -33 13 -39 2z"/>
<path d="M12025 4754 c-13 -13 -15 -39 -13 -143 l3 -126 25 0 25 0 3 136 c2
114 0 138 -12 142 -9 4 -22 -1 -31 -9z"/>
<path d="M5995 4750 c-10 -16 12 -30 46 -30 14 0 43 -11 63 -25 42 -29 56 -31
56 -10 0 33 -148 92 -165 65z"/>
<path d="M6180 4755 c0 -9 82 -85 92 -85 18 0 6 33 -21 61 -25 25 -71 40 -71
24z"/>
<path d="M10475 4746 c-17 -12 -17 -22 -6 -135 12 -131 22 -164 49 -159 19 4
20 26 7 195 -8 106 -17 123 -50 99z"/>
<path d="M13209 4635 c-90 -15 -119 -29 -119 -56 0 -24 22 -34 47 -21 10 6 54
15 98 21 88 13 105 22 89 49 -14 22 -24 23 -115 7z"/>
</g>
</svg>
