<?xml version="1.0" encoding="UTF-8" standalone="no"?>
<svg
   xmlns:dc="http://purl.org/dc/elements/1.1/"
   xmlns:cc="http://creativecommons.org/ns#"
   xmlns:rdf="http://www.w3.org/1999/02/22-rdf-syntax-ns#"
   xmlns:svg="http://www.w3.org/2000/svg"
   xmlns="http://www.w3.org/2000/svg"
   viewBox="0 0 579.85333 560.8667"
   height="560.8667"
   width="579.85333"
   xml:space="preserve"
   id="svg2"
   version="1.1"><metadata
     id="metadata8"><rdf:RDF><cc:Work
         rdf:about=""><dc:format>image/svg+xml</dc:format><dc:type
           rdf:resource="http://purl.org/dc/dcmitype/StillImage" /></cc:Work></rdf:RDF></metadata><defs
     id="defs6" /><g
     transform="matrix(1.3333333,0,0,-1.3333333,0,560.86667)"
     id="g10"><g
       transform="scale(0.1)"
       id="g12"><path
         id="path14"
         style="fill:#eeeeec;fill-opacity:1;fill-rule:nonzero;stroke:none"
         d="M 2174.42,0 C 1617.93,0 1061.45,112 636.871,336 -176.48,765.121 -210.738,1449.63 534.012,1900.28 c 15.636,-66.31 25.472,-140.26 25.496,-220.24 0.004,-3.06 -0.012,-6.14 -0.039,-9.22 v 0 0 l 81.949,46.82 c 0,0 20.832,114.81 20.82,249.11 0,1.6 0,3.19 -0.008,4.8 180.305,92.12 383.3,164.51 599.38,217.2 -4.06,-21.41 -7.91,-42.69 -12.64,-62.98 -5.18,-22.16 -10.2,-40.61 -15.24,-56.35 -0.75,0.94 -1.11,1.45 -1.11,1.45 0,0 2.03,5.08 5.19,14.82 v 0 0 c -4.67,1.62 -8.51,2.72 -11.84,2.72 -7.64,0 -12.61,-5.78 -18.86,-24.37 -5.11,-15.17 -8.72,-25.1 -8.72,-33.22 0,-6.16 2.08,-11.28 7.16,-16.85 0.78,-0.86 1.83,-1.91 3.13,-3.12 -6.17,-10.63 -12.74,-19.89 -19.94,-29.09 v 0 c -24.56,-31.41 -56.57,-62.37 -105.92,-146.2 -78.69,-133.66 -106.203,-236.3 -194.48,-367.16 -27.985,-41.48 -73.485,-103.35 -114.168,-179.81 -12.785,-6.31 -25.262,-12.96 -37.359,-19.95 -250.571,-144.66 -250.571,-379.21 0,-523.878 125.285,-72.34 289.487,-108.5 453.697,-108.5 164.21,0 328.42,36.16 453.71,108.5 250.57,144.668 250.57,379.218 0,523.888 -5.94,3.42 -11.95,6.76 -18.05,10.03 0.71,36.9 1.3,73.85 1.72,111.4 0.54,49.2 2.2,98.38 2.93,147.57 0.58,39.8 4.77,79.43 7.73,119.1 l 0.05,0.4 -0.02,-0.01 c 0.38,5.09 0.74,10.18 1.07,15.28 1.56,21.33 3.79,43.17 3.33,64.5 -1.14,52.51 -7.42,108.34 -9.66,144.87 -0.39,9.78 -0.9,17.87 -0.76,24.53 0.02,0.66 0.03,1.31 0.05,1.97 11.41,3.96 14.58,15.05 16.52,38.76 0.47,5.7 0.67,10.63 0.66,14.9 0,22.41 -5.41,26.53 -5.41,26.53 -0.95,-3.16 -2,-6.44 -2.96,-9.68 6.25,22.79 16.75,43.84 34.33,60.89 34.91,33.88 81.41,51.76 122.42,76.65 v 0 c 14.99,9.1 29.39,18.98 42.41,30.66 10.58,9.5 29.95,31.9 29.91,49.78 -0.01,3.07 -0.59,6.01 -1.88,8.72 -17.97,-10.33 -37.25,-17.7 -57.73,-17.7 -4.78,0 -9.62,0.4 -14.53,1.26 -9.43,1.65 -20.6,7.27 -27.58,13.84 -1.04,0.96 -2.09,2.19 -2.09,3.55 0,0.15 0.01,0.31 0.03,0.47 0.32,1.86 2.46,2.71 4.3,3.14 6.49,1.53 13.19,1.89 19.82,2.55 20.04,1.99 40.27,6.85 57.07,17.97 12.03,7.97 22.12,19.45 27.35,32.99 2.32,5.98 2.87,11.99 2.87,18.08 0,0.7 -0.01,1.4 -0.02,2.1 78.47,5.67 157.29,9.07 236.34,10.21 -13.68,-2.46 -26.31,-4.97 -37.54,-7.49 -88.8,-19.93 -123.81,-72.05 -123.84,-142.28 -0.02,-26.68 5.02,-55.99 14.08,-87.13 14.22,-48.92 69.74,-154.77 128.19,-259.16 -4.69,-2.6 -9.36,-5.23 -13.98,-7.9 -355.62,-205.33 -355.62,-538.21 -0.01,-743.53 177.81,-102.661 410.85,-153.978 643.9,-153.978 233.05,0 466.1,51.328 643.92,153.988 333.22,192.38 354.22,496.76 62.98,703.26 -2.81,11.54 -6.32,22.21 -11.16,31.23 -17.25,32.17 -46.68,45.54 -69.66,51.06 -4.57,1.1 -9.2,1.63 -13.81,1.63 -11.67,0 -23.2,-3.4 -33.24,-9.59 -55.19,26.3 -114.52,48.3 -176.58,65.95 9.64,23.89 17.91,46.96 23.54,67.3 12.71,46 17.57,98.44 17.58,148.31 0,21.66 -0.91,42.85 -2.5,62.81 196.57,-53.18 381.07,-123.2 545.68,-210.05 13.58,-7.16 26.93,-14.4 40.08,-21.7 -1.2,-21.08 -1.72,-42.04 -1.71,-62.53 0.01,-125.85 19.52,-233.38 19.52,-233.38 l 76.86,-43.91 v 0 0 0 c -0.02,2.89 -0.04,5.78 -0.03,8.66 0.02,93.71 14.42,178.63 35.84,251.74 C 4556.77,1407 4499.9,751.691 3711.98,336.012 3287.39,112 2730.9,0 2174.42,0 m 187.79,1900.55 -8.78,26.46 37.26,2.75 v 0 l 257.42,19.01 c 0,0 -0.83,-2.37 -2.38,-6.78 -96.94,-4.88 -192.78,-18.69 -283.52,-41.44 m -723.75,65.9 c 0,0.02 0.01,0.03 0.01,0.04 0,-0.01 -0.01,-0.02 -0.01,-0.04 v 0" /><path
         id="path16"
         style="fill:#dadbd8;fill-opacity:1;fill-rule:nonzero;stroke:none"
         d="m 1190.51,636.262 c -164.21,0 -328.412,36.16 -453.697,108.5 -250.571,144.668 -250.571,379.218 0,523.878 12.097,6.99 24.574,13.64 37.359,19.95 -22.785,-42.82 -44.059,-90.21 -59.902,-141.17 -54.508,-175.299 11.375,-304.272 124.593,-370.24 84.141,-49.032 135.801,-70.981 232.357,-70.981 18.66,0 38.99,0.821 61.55,2.422 77.74,5.52 124.12,38.641 155.04,56.488 9.48,-5.48 20.64,-7.879 32.9,-7.879 68.38,0 171.18,74.61 211.29,105.36 78.03,59.808 48.85,114.082 -12.49,114.082 -8.3,0 -17.18,-1 -26.47,-3.102 -51.8,-11.761 -90.72,-31.55 -90.72,-31.55 0,0 48.06,94.26 66.81,174.3 17.19,73.37 7.07,135.27 -20.82,151.07 17.08,18.31 32.66,36.44 46.95,54.39 5.77,-65.58 17.66,-224.45 22.24,-239.61 5.42,-17.96 38.55,-50.68 72.2,-50.68 4.25,0 8.5,0.52 12.71,1.66 37.56,10.16 116.23,45.43 127.72,79.18 10.05,29.51 -5.62,42.71 -39.35,42.71 -17.88,0 -40.83,-3.7 -67.73,-10.66 l 0.05,1.73 c 1.17,44.72 2.21,88.61 3.07,132.57 6.1,-3.27 12.11,-6.61 18.05,-10.03 250.57,-144.67 250.57,-379.22 0,-523.888 -125.29,-72.34 -289.5,-108.5 -453.71,-108.5" /><path
         id="path18"
         style="fill:#dadbd8;fill-opacity:1;fill-rule:nonzero;stroke:none"
         d="m 2725.24,892.492 c -233.05,0 -466.09,51.317 -643.9,153.978 -355.61,205.32 -355.61,538.2 0.01,743.53 4.62,2.67 9.29,5.3 13.98,7.9 76.68,-136.94 158.38,-271.37 158.38,-271.37 4.58,-0.97 9.09,-1.83 13.5,-2.58 7.05,-20.24 12.8,-39.3 16.28,-56.34 -5.55,-8.07 -9.86,-17.07 -15,-25.46 -7.08,-11.56 -17.32,-22.32 -29.66,-32.46 -21.71,-5.11 -27.06,-19.41 -27.06,-19.41 v 0 0 c 0.03,0 0.05,0 0.07,0 -7.31,-4.68 -14.96,-9.25 -22.83,-13.72 -21.96,-0.22 -33.46,-16.95 -34.27,-18.18 -8.75,-4.31 -17.49,-8.39 -26.29,-12.4 -0.01,0 -0.01,0 -0.01,0 -0.24,0.01 -0.49,0.01 -0.73,0.01 -23.06,0 -36.04,-16.49 -36.04,-16.49 v 0 c -28.78,-12.94 -66.97,-20.85 -89.49,-36.03 -23.37,-15.75 -32.25,-48.47 -21.92,-73.93 -4.71,-10.01 -3.31,-28.62 2.33,-40.44 5.25,-10.99 58.84,-41.8 133.18,-41.8 5.91,0 11.96,0.19 18.12,0.61 83.64,5.64 141.08,39.33 172.96,60.45 31.89,21.11 65.09,25.05 106.51,27.42 24.18,1.39 52.78,9 74.21,18.96 8.64,-13.73 20.02,-24.32 34.38,-30.93 43.36,-19.98 83.42,-30.93 126.15,-30.93 68.31,0 143.42,28 249.53,91.84 127.06,76.43 281.3,191.2 355.79,247.96 -0.07,-0.65 -0.1,-1.27 -0.1,-1.86 0.02,-13.84 17.03,-14.05 17.03,-14.05 l 0.01,0.01 18.66,-24.71 c -0.71,-2.28 -1.02,-4.31 -1.02,-6.11 -0.02,-13.06 16.29,-14.11 16.29,-14.11 0,0 -13.22,-92.11 4.84,-113.42 13.81,-16.29 30.91,-24.35 52.68,-24.35 5.58,0 11.47,0.53 17.7,1.59 2.18,-0.11 4.41,-0.17 6.67,-0.17 29.58,0 65.84,9.25 97.47,30.05 49.59,32.62 61.31,106.3 43.39,159.96 -21.72,65.01 -60.02,96.74 -74.27,135.67 -10.45,28.55 -12.9,66.83 -20.63,98.56 291.24,-206.5 270.24,-510.88 -62.98,-703.26 C 3191.34,943.82 2958.29,892.492 2725.24,892.492 m -237.68,580.448 c -3.32,15.17 -7,25.67 -11.96,25.67 -0.31,0 -0.63,-0.04 -0.95,-0.12 l -20.63,77.61 c 7.53,8.67 10.9,14.81 10.9,14.81 v 0 0 l -102.71,309.64 c 90.74,22.75 186.58,36.56 283.52,41.44 -17.49,-49.75 -126.07,-359.45 -158.17,-469.05 m -12.24,23.04 -0.59,2.23 c 0.12,-0.4 0.36,-1.19 0.59,-2.23 m 553.73,190.32 c 0,0 60.18,108.38 98.64,203.72 62.06,-17.65 121.39,-39.65 176.58,-65.95 -2.33,-1.44 -4.58,-3.03 -6.73,-4.77 l -14.31,-11.5 c -4.16,-1.89 -8.43,-4.11 -12.8,-6.68 -16.15,-9.17 -31.75,-20.28 -46.02,-31.73 -3.61,0.79 -6.32,0.97 -8.03,0.97 -1.43,0 -2.17,-0.12 -2.17,-0.12 v 0 l -185.16,-83.94" /><path
         id="path20"
         style="fill:#26b6a6;fill-opacity:1;fill-rule:nonzero;stroke:none"
         d="m 3846.74,1596.87 -76.86,43.91 c 0,0 -36.86,203.15 -9.29,377.78 38.76,245.52 205.93,330.21 266.64,305.81 60.72,-24.41 74.99,-97.14 -34.66,-239 -64.69,-83.7 -147.91,-260.64 -145.83,-488.5" /><path
         id="path22"
         style="fill:#1db3a0;fill-opacity:1;fill-rule:nonzero;stroke:none"
         d="m 3846.74,1596.87 -76.86,43.91 c 0,0 -19.51,107.53 -19.52,233.38 -0.01,47.12 2.72,96.82 10.23,144.4 34.53,218.74 171,309.83 243.29,309.83 8.85,0 16.73,-1.36 23.35,-4.02 28.52,-11.47 46.79,-33.59 46.79,-68.54 -0.01,-39.45 -23.3,-95.24 -81.45,-170.46 -63.87,-82.64 -145.8,-256.16 -145.86,-479.84 -0.01,-2.88 0.01,-5.77 0.03,-8.66" /><path
         id="path24"
         style="fill:#ffffff;fill-opacity:1;fill-rule:nonzero;stroke:none"
         d="m 3818.88,1694.38 0.76,0.05 c 3,0.42 5.1,3.18 4.68,6.18 -31.77,229.86 60.68,481.7 164.53,583.19 2.16,2.1 2.21,5.59 0.09,7.74 -2.12,2.15 -5.59,2.21 -7.75,0.09 -105.75,-103.34 -199.96,-359.28 -167.73,-592.52 0.38,-2.74 2.74,-4.73 5.42,-4.73" /><path
         id="path26"
         style="fill:#26b6a6;fill-opacity:1;fill-rule:nonzero;stroke:none"
         d="m 4059.99,1473.68 c 12.13,-6.97 37.17,8.27 46.76,14.7 16.41,11.02 29.71,26.61 38.55,44.25 10.27,20.53 12.87,42.52 9.65,65.23 -1.67,11.77 -4.97,23.25 -8.25,34.69 -3.23,11.22 -6.46,22.44 -9.68,33.66 -3.19,11.08 -6.4,22.53 -4.94,33.96 2.95,23.02 23.38,39.16 41.97,53.07 20.55,15.39 41.94,35.7 41.82,63.42 -0.08,21.39 -11.17,41.26 -24.42,58.04 -13.25,16.79 -28.98,31.62 -40.97,49.34 -8.62,12.76 -15.35,27.74 -13.94,43.08 0.87,9.52 4.81,18.5 9.38,26.9 9.79,18.06 22.7,34.59 29.46,53.98 6.74,19.39 5.79,43.51 -9.35,57.39 -12.42,11.38 -30.89,12.98 -47.7,11.86 -15.56,-1.02 -30.76,-8.04 -44.37,-15.61 -44,-24.48 -69.12,-76.6 -115.82,-95.43 -18.02,-7.26 -37.75,-8.85 -56.53,-13.82 -18.77,-4.96 -37.92,-14.55 -46.61,-31.92 -17.15,-34.23 14.66,-76.43 2.61,-112.78 -10.66,-32.16 -41.91,-44.48 -59.47,-73.46 -7.68,-12.68 -9.44,-27.33 -8.2,-42.11 2.09,-25 5.75,-43.34 17.75,-71.15 9.91,-22.98 39.05,-64.1 39.05,-64.1 0.73,-0.72 211.39,-122.12 213.25,-123.19" /><path
         id="path28"
         style="fill:#ffffff;fill-opacity:1;fill-rule:nonzero;stroke:none"
         d="m 3935.22,1540.15 h 0.15 c 3.1,0.13 5.45,2.69 5.33,5.71 -9.05,217.56 93.46,457.75 168,527.53 2.2,2.07 2.32,5.54 0.26,7.75 -2.08,2.21 -5.54,2.31 -7.75,0.26 -76.05,-71.18 -180.64,-315.37 -171.47,-535.99 0.13,-2.96 2.56,-5.26 5.48,-5.26" /><path
         id="path30"
         style="fill:#ffffff;fill-opacity:1;fill-rule:nonzero;stroke:none"
         d="m 3967.82,1797.19 1.62,0.25 c 69.89,21.6 157.02,25.41 157.88,25.45 3.04,0.12 5.37,2.68 5.25,5.7 -0.12,3.02 -2.41,5.41 -5.7,5.25 -0.89,-0.04 -89.38,-3.9 -160.66,-25.94 -2.89,-0.89 -4.52,-3.96 -3.63,-6.85 0.74,-2.35 2.89,-3.86 5.24,-3.86" /><path
         id="path32"
         style="fill:#26b6a6;fill-opacity:1;fill-rule:nonzero;stroke:none"
         d="m 559.469,1670.82 81.949,46.82 c 0,0 39.305,216.61 9.91,402.81 -41.328,261.79 -219.574,352.09 -284.308,326.06 -64.739,-26.02 -79.957,-103.57 36.957,-254.83 68.976,-89.25 157.707,-277.91 155.492,-520.86" /><path
         id="path34"
         style="fill:#1db3a0;fill-opacity:1;fill-rule:nonzero;stroke:none"
         d="m 559.469,1670.82 c 0.027,3.08 0.043,6.16 0.039,9.22 -0.074,238.5 -87.43,423.53 -155.531,511.64 -61.997,80.21 -86.84,139.69 -86.844,181.76 -0.008,37.26 19.476,60.85 49.887,73.07 7.058,2.84 15.464,4.3 24.902,4.3 77.078,0 222.586,-97.13 259.406,-330.36 7.996,-50.64 10.906,-103.53 10.91,-153.7 0.012,-134.3 -20.82,-249.11 -20.82,-249.11 l -81.949,-46.82" /><path
         id="path36"
         style="fill:#ffffff;fill-opacity:1;fill-rule:nonzero;stroke:none"
         d="m 589.172,1774.79 -0.809,0.05 c -3.195,0.45 -5.433,3.39 -4.988,6.59 33.871,245.09 -64.691,513.61 -175.434,621.83 -2.304,2.25 -2.347,5.95 -0.089,8.26 2.261,2.28 5.957,2.35 8.261,0.09 112.758,-110.19 213.207,-383.08 178.832,-631.78 -0.398,-2.92 -2.91,-5.04 -5.773,-5.04" /><path
         id="path38"
         style="fill:#26b6a6;fill-opacity:1;fill-rule:nonzero;stroke:none"
         d="m 332.09,1539.46 c -12.945,-7.43 -39.633,8.82 -49.86,15.68 -17.5,11.74 -31.675,28.37 -41.097,47.18 -10.961,21.89 -13.719,45.34 -10.293,69.55 1.781,12.56 5.301,24.8 8.801,36.98 3.441,11.97 6.879,23.94 10.32,35.91 3.394,11.8 6.82,24.02 5.262,36.2 -3.141,24.55 -24.934,41.76 -44.75,56.59 -21.907,16.41 -44.727,38.06 -44.598,67.62 0.098,22.8 11.91,43.99 26.039,61.89 14.137,17.9 30.91,33.71 43.684,52.6 9.191,13.61 16.367,29.58 14.871,45.94 -0.926,10.15 -5.141,19.72 -10.004,28.69 -10.434,19.25 -24.203,36.87 -31.402,57.55 -7.204,20.68 -6.176,46.39 9.96,61.18 13.247,12.15 32.93,13.85 50.86,12.66 16.594,-1.09 32.793,-8.58 47.305,-16.65 46.925,-26.09 73.707,-81.67 123.507,-101.75 19.203,-7.74 40.246,-9.44 60.27,-14.73 20.015,-5.29 40.433,-15.52 49.699,-34.03 18.281,-36.51 -15.641,-81.51 -2.793,-120.26 11.371,-34.3 44.699,-47.42 63.414,-78.33 8.188,-13.52 10.074,-29.15 8.754,-44.9 -2.234,-26.65 -6.137,-46.22 -18.93,-75.87 -10.57,-24.5 -41.64,-68.34 -41.64,-68.34 -0.778,-0.77 -225.395,-130.22 -227.379,-131.36" /><path
         id="path40"
         style="fill:#ffffff;fill-opacity:1;fill-rule:nonzero;stroke:none"
         d="m 465.129,1610.34 h -0.16 c -3.313,0.14 -5.813,2.87 -5.688,6.08 9.66,231.98 -99.644,488.09 -179.129,562.49 -2.347,2.21 -2.476,5.91 -0.273,8.27 2.219,2.35 5.898,2.46 8.262,0.27 81.078,-75.9 192.605,-336.26 182.828,-571.51 -0.137,-3.15 -2.727,-5.6 -5.84,-5.6" /><path
         id="path42"
         style="fill:#ffffff;fill-opacity:1;fill-rule:nonzero;stroke:none"
         d="m 430.367,1884.41 -1.722,0.26 c -74.532,23.04 -167.422,27.1 -168.352,27.14 -3.227,0.13 -5.727,2.86 -5.602,6.08 0.137,3.22 2.579,5.76 6.086,5.61 0.946,-0.05 95.309,-4.17 171.313,-27.67 3.082,-0.95 4.816,-4.22 3.859,-7.3 -0.777,-2.51 -3.082,-4.12 -5.582,-4.12" /><path
         id="path44"
         style="fill:#e7e8e5;fill-opacity:1;fill-rule:nonzero;stroke:none"
         d="m 889.836,4122.21 -94.039,-54.29 c 0.469,4.81 0.793,9.6 0.793,14.3 v 31.46 c 0,55.98 -34.035,81.71 -76.024,57.47 -17,-9.81 -32.644,-26.38 -45.304,-46.26 -6.875,71 -54.707,101.5 -112.793,67.96 C 499.652,4156.58 448.73,4059.29 448.73,3975.54 v -47.06 c 0,-21.69 3.477,-40.27 9.629,-55.38 L 380.25,3828 c -23.285,-13.44 -42.168,-49.51 -42.168,-80.57 0,-31.05 18.883,-45.32 42.168,-31.87 l 509.586,294.2 c 23.285,13.45 42.168,49.52 42.168,80.57 0,31.05 -18.883,45.33 -42.168,31.88" /><path
         id="path46"
         style="fill:#e7e8e5;fill-opacity:1;fill-rule:nonzero;stroke:none"
         d="m 1494.05,3957.96 -70.97,-40.97 c 0.35,3.63 0.6,7.24 0.6,10.79 v 23.74 c 0,42.25 -25.69,61.67 -57.38,43.38 -12.83,-7.42 -24.63,-19.92 -34.19,-34.92 -5.19,53.59 -41.29,76.6 -85.13,51.29 -47.4,-27.37 -85.83,-100.79 -85.83,-164 v -35.52 c 0,-16.37 2.62,-30.39 7.26,-41.79 l -58.95,-34.04 c -17.57,-10.15 -31.82,-37.37 -31.82,-60.81 0,-23.43 14.25,-34.21 31.82,-24.06 l 384.59,222.05 c 17.58,10.14 31.82,37.37 31.82,60.8 0,23.44 -14.24,34.21 -31.82,24.06" /><path
         id="path48"
         style="fill:#17282f;fill-opacity:1;fill-rule:nonzero;stroke:none"
         d="m 3344.33,1334.03 c 28.72,-15.3 89.72,-11.1 139.32,21.52 49.59,32.62 61.31,106.3 43.39,159.96 -21.72,65.01 -60.02,96.74 -74.27,135.67 -14.25,38.93 -13.63,95.95 -31.79,129.79 -17.25,32.17 -46.68,45.54 -69.66,51.06 -18.82,4.52 -38.7,-0.58 -53.78,-12.73 l -14.36,-11.54 61.15,-473.73" /><path
         id="path50"
         style="fill:#273e47;fill-opacity:1;fill-rule:nonzero;stroke:none"
         d="m 3248.7,1535.46 55.59,-73.61 c 0,0 -13.22,-92.11 4.84,-113.42 26.74,-31.56 65.84,-32.23 127.31,-3.26 70.3,33.12 78.01,102.2 66.86,153.41 -15.87,72.92 -92.08,118.51 -94.58,190.5 -2.51,71.99 -49.35,164.34 -138.29,112.04 -63.02,-35.78 -117.59,-101.05 -117.59,-101.05 l 95.86,-164.61" /><path
         id="path52"
         style="fill:#26b6a6;fill-opacity:1;fill-rule:nonzero;stroke:none"
         d="m 3304.29,1461.85 c 16.34,11.74 51.87,29.63 83.21,31.71 9.88,0.65 16.13,10.78 11.73,19.65 l -0.11,0.25 c -2.45,4.95 -7.62,7.91 -13.14,7.55 -20.17,-1.35 -68.67,-7.82 -96.96,-38.93 -5.84,-18.88 15.27,-20.23 15.27,-20.23" /><path
         id="path54"
         style="fill:#26b6a6;fill-opacity:1;fill-rule:nonzero;stroke:none"
         d="m 3270.35,1506.77 c 15.7,12.56 50.26,32.27 81.44,35.96 9.84,1.16 15.56,11.6 10.72,20.24 l -0.13,0.23 c -2.71,4.82 -8.03,7.51 -13.52,6.86 -20.07,-2.38 -68.17,-11.35 -94.81,-43.88 -4.86,-19.15 16.3,-19.41 16.3,-19.41" /><path
         id="path56"
         style="fill:#06ab91;fill-opacity:1;fill-rule:nonzero;stroke:none"
         d="m 3304.29,1461.85 v 0 c 0,0 -16.31,1.05 -16.29,14.11 0,1.8 0.31,3.83 1.02,6.12 28.29,31.11 76.79,37.58 96.96,38.93 0.31,0.02 0.61,0.03 0.92,0.03 5.17,0 9.9,-2.91 12.22,-7.58 l 0.11,-0.25 c 0.98,-1.97 1.43,-4.01 1.43,-5.99 0.01,-6.92 -5.48,-13.16 -13.16,-13.66 -31.34,-2.08 -66.87,-19.97 -83.21,-31.71" /><path
         id="path58"
         style="fill:#06ab91;fill-opacity:1;fill-rule:nonzero;stroke:none"
         d="m 3270.35,1506.77 c 0,0 -17.01,0.21 -17.03,14.05 0,0.59 0.03,1.21 0.1,1.86 27.81,21.2 44.51,34.31 44.51,34.31 0,0 0.02,0.04 0.05,0.11 19.95,8.29 39.74,11.64 50.88,12.96 0.55,0.07 1.09,0.1 1.63,0.1 4.89,0 9.45,-2.61 11.89,-6.96 l 0.13,-0.23 c 1.19,-2.13 1.74,-4.36 1.75,-6.54 0.02,-6.67 -5.05,-12.82 -12.47,-13.7 -31.17,-3.69 -65.72,-23.39 -81.43,-35.95 l -0.01,-0.01" /><path
         id="path60"
         style="fill:#f6879f;fill-opacity:1;fill-rule:nonzero;stroke:none"
         d="m 2452.33,1364.96 -165.39,65.62 c 2.77,42.61 -26.51,113.87 -55.04,184.46 l 195.1,62.71 49.95,-187.9 -24.62,-124.89" /><path
         id="path62"
         style="fill:#17282f;fill-opacity:1;fill-rule:nonzero;stroke:none"
         d="m 1980.32,1219.67 c -4.78,-9.98 -3.39,-28.7 2.27,-40.57 5.66,-11.87 67.67,-46.83 151.3,-41.19 83.64,5.64 141.08,39.33 172.96,60.45 31.89,21.11 65.09,25.05 106.51,27.42 41.41,2.38 95.8,23.03 104.88,42.4 9.08,19.37 -1.37,52.72 -1.37,52.72 l -536.55,-101.23" /><path
         id="path64"
         style="fill:#273e47;fill-opacity:1;fill-rule:nonzero;stroke:none"
         d="m 2317.83,1480.7 c -2.18,0.47 -4.38,0.93 -6.61,1.37 -3.65,0.72 -7.43,1.45 -11.04,0.59 -4.1,-0.97 -7.47,-3.86 -10.32,-6.96 -8.99,-9.78 -14.42,-22.22 -21.37,-33.55 -17.53,-28.59 -54.32,-52.27 -94.52,-73.88 -27.32,-14.69 -54.09,-26.08 -82.3,-38.77 -28.78,-12.94 -66.97,-20.85 -89.49,-36.03 -32.82,-22.12 -37.06,-77.7 0.33,-99.65 32.26,-18.93 117.13,-39.44 206.16,-14.23 48.48,13.74 102.31,65.55 165.96,70.53 40.48,3.17 117.02,14.54 143.08,45.27 9.63,13.63 -3.23,56.85 -13.79,94.16 -11.52,40.71 -15.79,112.52 -29.29,108.93 0,0 3.67,-10.16 -1.59,-15.59 -4.99,-5.16 -23.86,-16.33 -29.3,-20.97 -10,-8.54 -16.16,-20.62 -22.39,-32.21 -2.69,-5.01 -5.9,-10.35 -11.49,-12.45 -6.83,-2.57 -11.92,1.73 -17.9,4.48 -7.5,3.45 -16.27,4.08 -24.18,1.73 0.77,8.06 2.2,16.06 4.26,23.9 0.66,2.52 1.39,5.21 0.59,7.7 -0.8,2.52 -3.02,4.31 -5.17,5.82 -15.61,10.95 -31.73,15.95 -49.63,19.81" /><path
         id="path66"
         style="fill:#26b6a6;fill-opacity:1;fill-rule:nonzero;stroke:none"
         d="m 2211.77,1390.28 c 0,0 5.81,15.53 29.89,20 18.42,3.44 50.94,-10.14 71.17,-26.8 8.27,-6.82 7.2,-19.77 -2.19,-24.95 -5.59,-3.08 -12.43,-2.27 -17.25,1.92 -13.25,11.53 -42.97,32.49 -81.62,29.83" /><path
         id="path68"
         style="fill:#26b6a6;fill-opacity:1;fill-rule:nonzero;stroke:none"
         d="m 2154.69,1358.31 c 0,0 11.9,18.61 35.42,18.25 0,0 48.1,-1.38 77.85,-29.13 7.6,-7.08 7.08,-19.13 -2.03,-24.12 -5.41,-2.97 -12,-2.19 -16.61,1.93 -13.41,11.97 -40.29,37.13 -94.63,33.07" /><path
         id="path70"
         style="fill:#26b6a6;fill-opacity:1;fill-rule:nonzero;stroke:none"
         d="m 2091.67,1329.5 c 0,0 13.26,16.84 36.77,16.48 0,0 44.82,-1.67 74.58,-29.42 7.59,-7.08 7.07,-19.13 -2.03,-24.13 -5.41,-2.97 -12.01,-2.18 -16.61,1.93 -13.41,11.98 -38.37,39.2 -92.71,35.14" /><path
         id="path72"
         style="fill:#06ab91;fill-opacity:1;fill-rule:nonzero;stroke:none"
         d="m 2303.42,1356.67 c -3.6,0 -7.17,1.29 -10.03,3.78 -12.47,10.85 -39.54,30.06 -74.9,30.06 -2.19,0 -4.4,-0.07 -6.65,-0.23 -0.02,0 -0.04,0 -0.07,0 0,0 5.81,15.53 29.89,20 1.94,0.37 4.04,0.54 6.27,0.54 18.88,0 46.81,-12.43 64.9,-27.34 3.75,-3.09 5.58,-7.44 5.58,-11.75 0.01,-5.21 -2.63,-10.37 -7.77,-13.2 -2.27,-1.25 -4.75,-1.86 -7.22,-1.86" /><path
         id="path74"
         style="fill:#06ab91;fill-opacity:1;fill-rule:nonzero;stroke:none"
         d="m 2258.99,1321.52 c -3.48,0 -6.92,1.27 -9.67,3.72 -12.42,11.09 -36.42,33.51 -83.1,33.51 -3.7,0 -7.54,-0.14 -11.53,-0.44 0,0 11.67,18.25 34.75,18.25 0.23,0 0.45,0 0.67,0 0,0 48.1,-1.38 77.85,-29.13 3.51,-3.26 5.28,-7.58 5.29,-11.78 0,-4.91 -2.41,-9.65 -7.32,-12.34 -2.19,-1.2 -4.57,-1.79 -6.94,-1.79" /><path
         id="path76"
         style="fill:#06ab91;fill-opacity:1;fill-rule:nonzero;stroke:none"
         d="m 2194.05,1290.65 c -3.48,0 -6.93,1.26 -9.67,3.71 -12.49,11.16 -35.01,35.55 -81.97,35.55 -3.45,0 -7.03,-0.13 -10.74,-0.41 0,0 12.98,16.49 36.04,16.49 0.24,0 0.49,0 0.73,-0.01 0,0 44.82,-1.67 74.58,-29.42 3.5,-3.26 5.28,-7.58 5.28,-11.78 0.01,-4.91 -2.4,-9.65 -7.31,-12.35 -2.19,-1.2 -4.57,-1.78 -6.94,-1.78" /><path
         id="path78"
         style="fill:#26b6a6;fill-opacity:1;fill-rule:nonzero;stroke:none"
         d="m 3152.84,2259.08 c 16.29,-67.37 26.43,-200.24 -1.61,-301.76 -28.06,-101.52 -122.18,-271.02 -122.18,-271.02 l 185.16,83.94 c 0,0 43.45,1.67 83.28,-59.71 39.82,-61.37 0.44,-153.54 0.44,-153.54 0,0 -225.79,-177.29 -400.3,-282.27 -172.5,-103.78 -263,-112.83 -375.68,-60.91 -64.65,29.79 -68.79,140 -35.55,255.15 33.24,115.15 161.71,479.81 161.71,479.81 l -294.68,-21.76 111.49,-336.1 c 0,0 -53.66,-97.76 -211.21,-64.38 0,0 -253.69,417.43 -286.57,530.53 -32.89,113.09 -12.78,201.9 109.76,229.41 126.6,28.42 429.99,54.27 429.99,54.27 l 645.95,-81.66" /><path
         id="path80"
         style="fill:#0b7465;fill-opacity:1;fill-rule:nonzero;stroke:none"
         d="m 2648.1,1182.88 c -42.73,0 -82.79,10.95 -126.15,30.93 -22.2,10.22 -37.26,29.93 -46.13,56.07 -6.72,19.8 -9.88,43.29 -9.89,69.15 -0.01,39.39 7.29,84.27 20.47,129.93 33.24,115.15 161.71,479.81 161.71,479.81 v 0 l 24.55,45.99 c 0,0 -82.3,72.38 -110.77,151.13 0,0 11.89,-99.14 55.38,-159.95 l -147.87,-47.83 178.71,10.66 -257.42,-19.01 c -48.36,120.98 -158.79,140.19 -158.79,140.19 77.93,-31.78 121.52,-121.76 121.53,-142.94 v 0 l 111.49,-336.1 c 0,0 -39.16,-71.32 -148.75,-71.32 -18.72,0 -39.48,2.07 -62.46,6.94 0,0 -253.69,417.43 -286.57,530.53 -9.06,31.14 -14.1,60.45 -14.08,87.13 0.03,70.23 35.04,122.35 123.84,142.28 126.6,28.42 429.99,54.27 429.99,54.27 l 645.95,-81.66 c 8.91,-36.84 15.98,-93.27 15.97,-153.45 -0.01,-49.87 -4.87,-102.31 -17.58,-148.31 -28.06,-101.52 -122.18,-271.02 -122.18,-271.02 v 0 0 l 185.16,83.94 v 0 0 l -185.16,-83.94 c 0,0 -111.96,-242.2 -203.06,-279.06 0,0 113,34.6 192.27,136.17 79.12,101.39 248.08,201.83 248.67,202.18 -10.9,9.26 -20.35,15.09 -28.13,18.75 16.08,-6.88 37.87,-21.73 58.69,-53.81 13.37,-20.61 17.81,-44.71 17.81,-67.61 0,-43.9 -16.32,-83.45 -17.32,-85.82 -0.03,-0.07 -0.05,-0.11 -0.05,-0.11 0,0 -16.7,-13.11 -44.51,-34.31 -74.49,-56.76 -228.73,-171.53 -355.79,-247.96 -106.11,-63.84 -181.22,-91.84 -249.53,-91.84" /><path
         id="path82"
         style="fill:#0b5e52;fill-opacity:1;fill-rule:nonzero;stroke:none"
         d="m 2469.4,1938.11 147.87,47.83 c -43.49,60.81 -55.38,159.95 -55.38,159.95 28.47,-78.75 110.77,-151.13 110.77,-151.13 l -24.55,-45.99 v 0 0 l -178.71,-10.66" /><path
         id="path84"
         style="fill:#b3b5b4;fill-opacity:1;fill-rule:nonzero;stroke:none"
         d="m 3224.03,1769.08 c -5.06,1.07 -8.43,1.16 -9.47,1.16 -0.23,0 -0.35,0 -0.35,0 0,0 0.74,0.12 2.17,0.12 1.71,0 4.42,-0.18 8.03,-0.97 -0.13,-0.1 -0.26,-0.21 -0.38,-0.31" /><path
         id="path86"
         style="fill:#1f3239;fill-opacity:1;fill-rule:nonzero;stroke:none"
         d="m 3238.8,1764.34 c -5.76,2.46 -10.79,3.9 -14.77,4.74 0.12,0.1 0.25,0.21 0.38,0.31 3.82,-0.83 8.65,-2.35 14.39,-5.05" /><path
         id="path88"
         style="fill:#0b5e52;fill-opacity:1;fill-rule:nonzero;stroke:none"
         d="m 2825.99,1407.24 c 91.1,36.86 203.06,279.06 203.06,279.06 l 185.16,83.94 v 0 c 0,0 0.12,0 0.35,0 1.86,0 11.15,-0.3 24.24,-5.9 7.78,-3.66 17.23,-9.49 28.13,-18.75 -0.59,-0.35 -169.55,-100.79 -248.67,-202.18 -79.27,-101.57 -192.27,-136.17 -192.27,-136.17" /><path
         id="path90"
         style="fill:#c5c6c4;fill-opacity:1;fill-rule:nonzero;stroke:none"
         d="m 2353.43,1927.01 v 0 l 37.26,2.75 v 0 l -37.26,-2.75" /><path
         id="path92"
         style="fill:#0b5e52;fill-opacity:1;fill-rule:nonzero;stroke:none"
         d="m 2353.43,1927.01 c -0.01,21.18 -43.6,111.16 -121.53,142.94 0,0 110.43,-19.21 158.79,-140.19 l -37.26,-2.75" /><path
         id="path94"
         style="fill:#f6879f;fill-opacity:1;fill-rule:nonzero;stroke:none"
         d="m 2499.82,3198.41 c -49.5,4.44 -119.98,-74.46 -160.4,-199.3 -40.41,-124.83 -234.58,-535.82 -234.58,-535.82 l -568.7,9.45 91.15,-161.85 c 0,0 433.99,-35.33 501.18,-39.99 93.68,-6.49 115.51,9.65 153.93,67.39 38.76,58.27 181.64,308.91 181.64,308.91 l 35.78,551.21" /><path
         id="path96"
         style="fill:#33535f;fill-opacity:1;fill-rule:nonzero;stroke:none"
         d="m 2538.68,3209.1 c 0,0 -59.98,5.95 -113.13,-37.44 -43.19,-35.28 -78.03,-92.93 -120.68,-196.78 -33.76,-82.19 -163.53,-398.91 -163.53,-398.91 0,0 78.83,-107.9 234.06,-114.92 l 227.06,445.46 -63.78,302.59" /><path
         id="path98"
         style="fill:#ededeb;fill-opacity:1;fill-rule:nonzero;stroke:none"
         d="m 3032.88,2976.19 c 54.59,-205.25 125.25,-746.8 125.25,-746.8 -89.34,-103.87 -501.84,-99.24 -670.59,111.35 -19.76,166.44 -65.45,298.72 -101.93,596.61 -16.08,131.36 15.5,222.76 138.75,272.22 l 229.1,-0.46 149.67,-2.74 c 82.14,-43.88 109.17,-152.82 129.75,-230.18" /><path
         id="path100"
         style="fill:#e2e2e0;fill-opacity:1;fill-rule:nonzero;stroke:none"
         d="m 2770.26,2180.86 c 163.98,-37.02 334.21,-13.86 387.87,48.53 0,0 -70.66,541.55 -125.25,746.8 -8.4,31.57 -17.95,68.4 -31.82,103.92 l -146.96,-25.79 c -2.43,-58.33 66.09,-272.12 114.77,-390.42 42.1,-102.31 71.6,-213.47 63.52,-286 -8.09,-72.48 -68.45,-213.22 -262.13,-197.04" /><path
         id="path102"
         style="fill:#17282f;fill-opacity:1;fill-rule:nonzero;stroke:none"
         d="m 2658.6,3681.08 c 8.71,-108.37 -72.07,-203.29 -180.44,-212.01 -108.37,-8.71 -203.29,72.07 -212.01,180.45 -8.71,108.37 72.07,203.28 180.44,212 108.38,8.71 203.3,-72.07 212.01,-180.44" /><path
         id="path104"
         style="fill:#17282f;fill-opacity:1;fill-rule:nonzero;stroke:none"
         d="m 2812.79,3553.06 c 0,0 -19.78,-151.95 -30.56,-177.52 -10.78,-25.57 -36.56,-34.66 -36.56,-34.66 l -6.23,105.26 73.35,106.92" /><path
         id="path106"
         style="fill:#17282f;fill-opacity:1;fill-rule:nonzero;stroke:none"
         d="m 2755.67,3763.86 c 0,0 33.78,8.62 62.67,-16.52 28.33,-24.66 20.45,-109.61 -5.55,-194.28 l -59.35,-11.69 2.23,222.49" /><path
         id="path108"
         style="fill:#f6879f;fill-opacity:1;fill-rule:nonzero;stroke:none"
         d="m 2735.49,3539.87 c 12.59,-6.21 27.87,18.24 41.43,34.93 13.56,16.69 60.21,41.75 88.42,-7.13 28.74,-49.81 -11.62,-121.94 -48.72,-136.95 -63.95,-25.86 -77.18,15.42 -77.18,15.42 l 14.02,-237.03 c -51.45,-67.7 -254.72,-132.96 -213.93,-10.91 l -5.61,72.03 c 0,0 -58.64,-11.01 -88.06,-11.64 -33.5,-0.73 -71.72,21.09 -97.06,94.02 -31.66,91.15 -39.32,209.85 -30.43,329.89 12.09,163.38 205.9,183.24 325.21,120.9 119.32,-62.35 91.91,-263.53 91.91,-263.53" /><path
         id="path110"
         style="fill:#17282f;fill-opacity:1;fill-rule:nonzero;stroke:none"
         d="m 2737.12,3519.66 c 5.24,3.04 25.94,40.34 39.8,55.14 19.2,20.52 -21.25,189.06 -21.25,189.06 0,0 16.49,44.03 -26.93,84.73 -30.89,28.95 -87.29,63.12 -166.83,42.26 -58.53,-15.36 -118.28,-34.03 -178.9,-22.8 -30.08,5.58 -59.78,14.22 -90.35,15.65 -3.59,0.17 -7.58,0.1 -10.21,-2.34 -2.86,-2.64 -3.07,-7.03 -2.82,-10.92 1.26,-19.63 9.02,-38.78 21.77,-53.76 -12.62,2.69 -25.26,5.37 -37.9,8.05 -2.62,0.56 -5.59,1.06 -7.78,-0.49 -2.35,-1.65 -2.78,-4.89 -2.87,-7.76 -0.83,-26.66 11.21,-53.42 31.7,-70.49 42.69,-35.57 87.5,-45 142.64,-45.35 128.6,-0.84 197.59,26.66 213.78,30.22 22.03,4.84 28.53,-16.38 45.3,-74.41 14.7,-50.95 4.95,-163.35 50.85,-136.79" /><path
         id="path112"
         style="fill:#17282f;fill-opacity:1;fill-rule:nonzero;stroke:none"
         d="m 2756.62,3750.58 69.48,44.82 c -11.97,19.98 -37.25,26.14 -56.43,13.76 -19.19,-12.38 -25.03,-38.6 -13.05,-58.58" /><path
         id="path114"
         style="fill:#f47089;fill-opacity:1;fill-rule:nonzero;stroke:none"
         d="m 2533.92,3270.23 c 0,0 105.95,30.36 141.98,53.4 24.13,15.43 43.01,40.31 47.9,55.68 0,0 -4.48,-32.52 -24.67,-63.11 -24.71,-37.41 -162.9,-74.62 -162.9,-74.62 l -2.31,28.65" /><path
         id="path116"
         style="fill:#17282f;fill-opacity:1;fill-rule:nonzero;stroke:none"
         d="m 2524.74,3549.37 c 1,-12.39 11.47,-21.62 23.38,-20.64 11.92,1 20.77,11.84 19.77,24.23 -0.99,12.38 -11.46,21.61 -23.38,20.63 -11.92,-1 -20.76,-11.85 -19.77,-24.22" /><path
         id="path118"
         style="fill:#17282f;fill-opacity:1;fill-rule:nonzero;stroke:none"
         d="m 2540.35,3630.43 48.22,-21.77 c 5.74,13.82 -0.4,29.89 -13.72,35.9 -13.31,6.01 -28.76,-0.31 -34.5,-14.13" /><path
         id="path120"
         style="fill:#f47089;fill-opacity:1;fill-rule:nonzero;stroke:none"
         d="m 2544.33,3401.03 -47.78,-22.45 c 6.01,-13.73 21.58,-19.83 34.78,-13.64 13.2,6.2 19.02,22.36 13,36.09" /><path
         id="path122"
         style="fill:#17282f;fill-opacity:1;fill-rule:nonzero;stroke:none"
         d="m 2324.87,3591.24 44.64,29.14 c -7.65,12.73 -23.84,16.52 -36.16,8.48 -12.33,-8.05 -16.13,-24.89 -8.48,-37.62" /><path
         id="path124"
         style="fill:#17282f;fill-opacity:1;fill-rule:nonzero;stroke:none"
         d="m 2347.95,3537.52 c 0.99,-12.39 11.46,-21.62 23.38,-20.63 11.91,1 20.77,11.84 19.77,24.22 -1,12.38 -11.47,21.62 -23.38,20.63 -11.91,-1 -20.77,-11.84 -19.77,-24.22" /><path
         id="path126"
         style="fill:#f47089;fill-opacity:1;fill-rule:nonzero;stroke:none"
         d="m 2463.48,3569.16 22.25,-129.41 -79.44,2.18 z" /><path
         id="path128"
         style="fill:#f6879f;fill-opacity:1;fill-rule:nonzero;stroke:none"
         d="m 3366.01,2517.55 c 10.65,42.08 -57.3,191.99 -140.38,351.91 -144.33,277.83 -207.22,333.37 -328.51,325.56 l 37.74,-317.42 221.24,-360.05 c -5.74,-29.59 -57.83,-205.25 -110.28,-303.94 -9.3,-17.48 -25.11,-30.55 -43.68,-37.43 -49.81,-18.45 -73.44,-43.1 -113.84,-71 -31.62,-21.84 -55.18,-24.04 -53.55,-33.4 2.09,-12.04 16.93,-33.9 50.79,-30.77 17.05,1.57 40.35,9.84 69.6,20.99 0,0 -29.47,-46.93 -86.66,-93.41 -77.51,-63.02 -117.95,-112.64 6.66,-139.58 78.08,-16.88 179.56,30.39 274.08,190.59 27.24,46.15 71.66,119.07 99.9,180.85 66.75,146.04 85.82,194.23 116.89,317.1" /><path
         id="path130"
         style="fill:#33535f;fill-opacity:1;fill-rule:nonzero;stroke:none"
         d="m 2858.44,3207.19 c 0,0 -47.73,-150.28 64.82,-335.49 67.04,-110.32 166.96,-280.06 166.96,-280.06 0,0 190.22,37.61 222.12,136.07 0,0 -84.57,191.6 -170.9,326.97 -86.74,136.02 -119.64,166.7 -283,152.51" /><path
         id="path132"
         style="fill:#17282f;fill-opacity:1;fill-rule:nonzero;stroke:none"
         d="m 1290.67,2294.32 c -36.27,115.43 -35.3,192.5 -10.23,236.79 16.81,29.7 69.28,41.48 91.62,43.41 22.73,1.96 29.89,-15.29 9.53,-35.29 -20.35,-20 -12.8,-38.83 -1.84,-63.43 16.04,-35.97 47.99,-79.3 47.99,-79.3 l -137.07,-102.18" /><path
         id="path134"
         style="fill:#33535f;fill-opacity:1;fill-rule:nonzero;stroke:none"
         d="m 1771.01,2210.06 c 6.49,1.53 13.19,1.89 19.82,2.55 20.04,1.99 40.27,6.85 57.07,17.97 12.03,7.97 22.12,19.45 27.35,32.99 4.23,10.93 2.59,21.96 2.39,33.45 -0.16,9.05 -0.92,18.15 -3.67,26.82 -7.46,23.5 -28.46,39.29 -48.69,51.55 -45.81,27.78 -94.66,3.68 -162.54,-8.1 -21.54,-3.74 -51.44,8.43 -87.81,20.6 -50.32,16.83 -113.02,33.67 -183.09,8.37 -117.83,-42.53 -119.18,-169.04 -142.87,-270.49 -38.67,-165.52 -68.36,-124.12 -166.15,-290.21 C 1004.13,1701.9 976.617,1599.26 888.34,1468.4 844.684,1403.69 758.402,1289.36 714.27,1147.42 659.762,972.121 725.645,843.148 838.863,777.18 c 100.395,-58.5 154.547,-78.45 293.907,-68.559 77.74,5.52 124.12,38.641 155.04,56.488 62.41,-36.039 196.89,61.219 244.19,97.481 88.59,67.898 38.99,128.66 -38.96,110.98 -51.8,-11.761 -90.72,-31.55 -90.72,-31.55 0,0 48.06,94.26 66.81,174.3 17.19,73.37 7.07,135.27 -20.82,151.07 17.08,18.31 32.66,36.44 46.95,54.39 5.77,-65.58 17.66,-224.45 22.24,-239.61 6.11,-20.23 47.35,-59.18 84.91,-49.02 37.56,10.16 116.23,45.43 127.72,79.18 15.37,45.16 -29.45,52.12 -107.08,32.05 l 0.05,1.73 c 2.15,82.26 3.87,161.69 4.79,243.97 0.54,49.2 2.2,98.38 2.93,147.57 0.58,39.8 4.77,79.43 7.73,119.1 l 0.05,0.4 -0.02,-0.01 c 1.97,26.32 3.4,52.67 2.83,79.11 -1.44,66.41 -9.53,138.79 -8.85,170.07 1.07,48.44 7.77,99.01 43.19,133.37 34.91,33.88 81.41,51.76 122.42,76.65 14.99,9.1 29.39,18.98 42.41,30.66 12.39,11.13 36.86,39.97 28.03,58.5 -22.16,-12.75 -46.31,-20.97 -72.26,-16.44 -9.43,1.65 -20.6,7.27 -27.58,13.84 -1.15,1.07 -2.32,2.47 -2.06,4.02 0.32,1.86 2.46,2.71 4.3,3.14" /><path
         id="path136"
         style="fill:#f6879f;fill-opacity:1;fill-rule:nonzero;stroke:none"
         d="m 1559.36,2471.96 c -135.12,7.39 -171.25,-37.64 -202.16,-62.79 -30.91,-25.15 -91.33,-131.96 -22.88,-153.49 68.45,-21.53 132.19,57.8 132.19,57.8 l 92.85,158.48" /><path
         id="path138"
         style="fill:#273e47;fill-opacity:1;fill-rule:nonzero;stroke:none"
         d="m 1627.33,1875.73 c -0.23,10.21 0.83,24.11 0.98,30.91 0.18,8.59 8.56,17.11 9.03,25.73 -30.36,-3.26 -83.6,-6.22 -167.73,-2.5 -148.28,6.57 -214.54,84.1 -214.54,84.1 l -33.68,22.21 c -9.84,-22.72 -20.31,-38.65 -32.65,-54.42 169.85,-140.34 353.04,-119.46 411.75,-112.03 l 26.84,6" /><path
         id="path140"
         style="fill:#f47089;fill-opacity:1;fill-rule:nonzero;stroke:none"
         d="m 1857.43,2238.06 c 28.38,-4.66 43.18,-16.01 52.58,-26.88 9.39,-10.86 36.74,-74.05 15.47,-93.01 -21.27,-18.96 -69.09,-0.53 -74.65,46.12 0,0 -74.21,-2.16 -96.15,29.24 -21.94,31.4 14.15,41.04 47.33,42.37 33.19,1.34 55.42,2.16 55.42,2.16" /><path
         id="path142"
         style="fill:#c35363;fill-opacity:1;fill-rule:nonzero;stroke:none"
         d="m 1868.61,2205.5 c 0,0 -30.73,-21.65 -26.16,-41.16 5.15,-0.13 8.38,-0.05 8.38,-0.05 1.67,-13.95 7.15,-25.32 14.53,-33.98 9.07,-8.36 20.05,-14.3 32.64,-14.4 25.8,-0.21 15.36,21.71 9.83,46.28 -5.53,24.57 -25.19,47.3 -39.22,43.31" /><path
         id="path144"
         style="fill:#17282f;fill-opacity:1;fill-rule:nonzero;stroke:none"
         d="m 842.668,868.59 c 30.309,-28.91 18.02,-60.34 18.02,-60.34 0,0 -33.192,-53.629 -188.934,-70.91 -148.746,-16.508 -293.731,47.652 -421.793,0 -128.055,-47.66 -74.988,-144.731 -88.281,-170.481 -13.289,-25.75 -50.02,-7.937 -50.028,68.532 -0.007,76.461 51.317,145.968 144.075,168.007 92.761,22.051 223.496,4.422 347.398,2.473 126.797,-2.012 156.605,49.309 176.566,70.027 23.157,24.043 46.329,8.563 62.977,-7.308" /><path
         id="path146"
         style="fill:#fafaf9;fill-opacity:1;fill-rule:nonzero;stroke:none"
         d="m 1873.97,2323.84 c -7.46,23.5 -28.46,39.29 -48.69,51.55 -32.01,19.41 -65.53,13.48 -105.98,4.13 -12.29,-10.84 5.54,-41.19 28.67,-57.99 23.13,-16.8 60.25,-78.19 -23.66,-99.27 -93.86,-23.58 -125.22,-59.22 -151.4,-111.46 -37.75,-75.33 -18.69,-122.32 2.2,-173.29 18.96,-46.27 66.34,-169.3 64.21,-269.85 1.54,22.83 4.15,46.34 3.66,69.26 -1.44,66.41 -11.1,138.12 -10.42,169.4 1.07,48.44 7.77,99.01 43.19,133.37 34.91,33.88 81.41,51.76 122.42,76.65 14.99,9.1 29.39,18.98 42.41,30.66 12.39,11.13 36.86,39.97 28.03,58.5 -22.16,-12.75 -46.31,-20.97 -72.26,-16.44 -9.43,1.65 -20.6,7.27 -27.58,13.84 -1.15,1.07 -2.32,2.47 -2.06,4.02 0.32,1.86 2.46,2.71 4.3,3.14 6.49,1.53 13.19,1.89 19.82,2.55 20.04,1.99 40.27,6.85 57.07,17.97 12.03,7.97 22.12,19.45 27.35,32.99 4.23,10.93 2.59,21.96 2.39,33.45 -0.16,9.05 -0.92,18.15 -3.67,26.82" /><path
         id="path148"
         style="fill:#17282f;fill-opacity:1;fill-rule:nonzero;stroke:none"
         d="m 1815.23,2354.42 -1.64,1.89 c -1.93,2.65 -2.99,5.89 -5.18,8.32 -3.3,3.67 -8.46,4.84 -13.2,6.19 -7.17,2.04 -13.92,5.73 -11.2,14.05 0.81,2.45 2.84,3.43 5.08,4.38 7.82,3.3 15.06,7.39 23.83,7.31 10.02,-0.08 19.69,-4.14 28.3,-8.96 24.54,-13.76 37.22,-29.86 41.85,-39.05 4.62,-9.18 -6.99,-37.64 -6.99,-37.66 1.23,3.04 -1.45,10.08 -2.39,12.87 -5.45,16.19 -32.14,19.24 -45.94,23.88 -4.54,1.53 -9.19,3.45 -12.52,6.78" /><path
         id="path150"
         style="fill:#dadbd8;fill-opacity:1;fill-rule:nonzero;stroke:none"
         d="m 1675.75,2039.69 c 34.91,33.88 81.41,51.76 122.42,76.65 5.44,3.3 10.76,6.76 16,10.31 -70.81,-40.27 -152.68,-8.44 -191.76,-36.22 -39.12,-27.82 -30.19,-113.7 0,-147.24 21.02,-23.34 -13.37,-31.14 -36.22,-33.73 4.45,-11.66 9.32,-25.03 14.3,-39.73 l 33.07,5.07 c -0.36,12.99 -1.18,23.34 -1,31.52 1.07,48.44 7.77,99.01 43.19,133.37" /><path
         id="path152"
         style="fill:#17282f;fill-opacity:1;fill-rule:nonzero;stroke:none"
         d="m 1475.25,2285.91 c 23.78,-23.24 56.77,-53.33 81.62,-81.78 21.09,-24.14 37.24,-6.32 55.04,105 15.26,95.54 23.7,110.63 40.29,116.16 12.46,4.15 34.34,1.39 38.31,10.33 7.6,17.11 -18.77,49.23 -80.35,59.37 -93.76,15.45 -172.28,-172.58 -134.91,-209.08" /><path
         id="path154"
         style="fill:#26b6a6;fill-opacity:1;fill-rule:nonzero;stroke:none"
         d="m 1237.81,2085.69 c -3.16,-9.74 -5.19,-14.82 -5.19,-14.82 0,0 46.07,-65.51 198.21,-96.64 152.15,-31.13 207.63,-7.78 207.63,-7.78 0.97,6.72 3.71,14.69 5.92,22.03 0,0 7.67,-5.85 4.75,-41.43 -2.09,-25.54 -5.6,-36.44 -19.31,-39.55 -42.87,-9.74 -128.67,-8.9 -212.73,9.93 -129.28,28.96 -199.77,83.63 -211.54,96.54 -11.77,12.91 -7.43,23.38 1.56,50.07 8.98,26.69 15.32,26.97 30.7,21.65" /><path
         id="path156"
         style="fill:#06ab91;fill-opacity:1;fill-rule:nonzero;stroke:none"
         d="m 1559.93,1901.36 c -41.91,0 -92.68,4.83 -142.84,16.07 -129.28,28.96 -199.77,83.63 -211.54,96.54 -5.08,5.57 -7.16,10.69 -7.16,16.85 0,8.12 3.61,18.05 8.72,33.22 6.25,18.59 11.22,24.37 18.86,24.37 3.33,0 7.17,-1.1 11.84,-2.72 -3.16,-9.74 -5.19,-14.82 -5.19,-14.82 v 0 0 c 0,0 46.07,-65.51 198.21,-96.64 60.85,-12.45 106.25,-16.19 138.81,-16.19 48.86,0 68.82,8.41 68.82,8.41 0.97,6.72 3.71,14.69 5.92,22.03 0,0 5.41,-4.12 5.41,-26.53 0.01,-4.27 -0.19,-9.2 -0.66,-14.9 -1.94,-23.71 -5.11,-34.8 -16.52,-38.76 -0.88,-0.31 -1.81,-0.57 -2.79,-0.79 -11.04,-2.51 -24.92,-4.32 -40.89,-5.3 -9.05,-0.55 -18.76,-0.84 -29,-0.84" /><path
         id="path158"
         style="fill:#273e47;fill-opacity:1;fill-rule:nonzero;stroke:none"
         d="m 1448.31,1267.39 c -44.6,25.82 -148.69,3.97 -242.51,-111.69 0,0 3.86,73.25 92.53,124.66 88.68,51.4 153.12,34.13 176.87,17.13 l -26.89,-30.1" /><path
         id="path160"
         style="fill:#273e47;fill-opacity:1;fill-rule:nonzero;stroke:none"
         d="m 1431.81,954.77 c -18.28,-7.071 -29.48,-12.75 -29.48,-12.75 -23.44,-47.782 -54.64,-100.45 -54.64,-100.45 0,0 63.09,57.719 84.12,113.2" /><path
         id="path162"
         style="fill:#273e47;fill-opacity:1;fill-rule:nonzero;stroke:none"
         d="m 1553.88,969.59 c -5.36,2.57 -11.45,4.461 -18.1,5.648 -5.64,-1.597 -11.16,-3.527 -16.22,-6.488 -4.84,-2.84 -9.63,-5.871 -13.79,-9.668 -1.59,-1.453 -10.78,-10.32 -7.77,-12.512 l 2.86,0.559 c 11.54,7.793 24.59,15.609 38.08,19.34 4.92,1.363 9.92,2.281 14.94,3.121" /><path
         id="path164"
         style="fill:#273e47;fill-opacity:1;fill-rule:nonzero;stroke:none"
         d="m 1576.42,946.898 c -1.33,3.321 -3.13,6.403 -5.35,9.243 -22.55,-3.891 -47.26,-11.161 -52.47,-31.063 -0.16,-0.637 0.19,-3.238 1.41,-2.418 9.42,6.328 18.53,12.449 29.05,16.879 8.93,3.762 18.08,5.813 27.36,7.359" /><path
         id="path166"
         style="fill:#273e47;fill-opacity:1;fill-rule:nonzero;stroke:none"
         d="m 1724.91,1146.33 c -4.23,3.47 -10.06,5.86 -17.33,7.23 -1.15,-0.23 -2.4,-0.46 -3.44,-0.67 -9.39,-1.93 -17.74,-6.27 -24.52,-13.04 -0.4,-0.39 -0.45,-2.27 0.46,-1.91 11.66,4.58 23.05,7.53 35.61,8.29 3.09,0.18 6.16,0.2 9.22,0.1" /><path
         id="path168"
         style="fill:#273e47;fill-opacity:1;fill-rule:nonzero;stroke:none"
         d="m 1732.8,1131.43 c -0.39,3.51 -1.39,6.61 -3.01,9.31 -2.69,-0.28 -5.38,-0.64 -8.02,-1.27 -8.13,-1.94 -18.72,-5.8 -20.57,-15.03 l 0.75,-1.49 c 8.34,2.44 14.94,6.81 23.88,8.05 2.34,0.33 4.65,0.34 6.97,0.43" /><path
         id="path170"
         style="fill:#dadbd8;fill-opacity:1;fill-rule:nonzero;stroke:none"
         d="m 263.332,711.191 c -18.254,4.34 -39.398,-8.699 -52.16,-21.293 C 200.66,679.539 193.41,666.199 190,651.859 c -1.719,-7.23 -2.469,-14.687 -2.301,-22.121 0.086,-3.758 0.406,-7.508 0.957,-11.226 0.52,-3.473 0.215,-7.34 1.985,-10.473 0.82,-1.457 2.746,-2.57 4.16,-1.68 1.168,0.743 1.332,2.332 1.367,3.711 0.293,12.141 -0.242,24.821 4.145,36.371 4.164,10.95 9.91,21.938 17.031,31.25 12.562,16.418 29.156,20.809 46.261,30.071 1.059,0.578 1.024,3.117 -0.273,3.429" /><path
         id="path172"
         style="fill:#dadbd8;fill-opacity:1;fill-rule:nonzero;stroke:none"
         d="m 245.348,673.07 c -9.344,0.2 -19.098,-10.269 -23.864,-17.531 -5.636,-8.59 -10.609,-23.34 -8.964,-33.328 0.464,-2.813 5.691,-5.922 7.753,-2.922 4.036,5.859 5.043,12.801 7.082,19.52 3.215,10.632 11.196,22.261 21.524,27.101 4.191,1.969 -0.598,7.09 -3.531,7.16" /><path
         id="path174"
         style="fill:#dadbd8;fill-opacity:1;fill-rule:nonzero;stroke:none"
         d="M 212.262,819.09 C 158.703,814.699 106.836,768.32 90.1914,718.871 c -0.3359,-1.012 0.9414,-3.98 2.125,-2.422 33.6606,44.391 67.4806,79.332 122.9966,95.133 4.953,1.406 0.882,7.828 -3.051,7.508" /><path
         id="path176"
         style="fill:#dadbd8;fill-opacity:1;fill-rule:nonzero;stroke:none"
         d="m 178.184,828.578 c -23.032,4.141 -53.754,-19.168 -68.555,-35.109 -1.805,-1.949 1.504,-6.809 3.965,-5.719 12.297,5.449 22.746,14.051 34.219,20.941 10.664,6.399 21.714,8.77 32.792,13.731 2.961,1.328 -0.464,5.797 -2.421,6.156" /></g></g></svg>